<svg width="36" height="45" viewBox="0 0 36 45" fill="none" xmlns="http://www.w3.org/2000/svg">
<path d="M33.993 14.4C33.5718 15.5592 33.1596 16.7148 32.733 17.874C31.6242 20.9088 30.465 23.9292 29.4246 26.9892C28.5678 29.5002 27.8478 32.0598 27.0756 34.6032C26.541 36.3744 26.0352 38.1492 25.5114 39.9132C25.47 40.0464 25.434 40.2156 25.3404 40.2894C25.2144 40.3884 25.0164 40.4784 24.876 40.4478C24.7966 40.4226 24.7239 40.3799 24.6632 40.3229C24.6024 40.2659 24.5552 40.196 24.525 40.1184C24.4818 39.9254 24.4924 39.7243 24.5556 39.537C25.7346 35.5698 26.901 31.599 28.1196 27.6444C29.232 24.0228 30.5856 20.493 31.986 16.9776C32.22 16.389 32.436 15.7914 32.5908 15.165C32.5048 15.2696 32.4208 15.3758 32.3388 15.4836C29.4138 19.404 26.6166 23.4072 24.2046 27.6696C22.2533 31.1319 20.6714 34.7898 19.485 38.583C19.44 38.727 19.3896 38.8746 19.3122 39.006C19.1736 39.2364 18.972 39.375 18.6948 39.3066C18.3996 39.2292 18.2826 39.0042 18.2988 38.7162C18.3258 38.2608 18.3708 37.8018 18.4068 37.341C18.7614 32.5602 19.1484 27.7776 19.4742 22.9968C19.719 19.341 19.8756 15.6744 20.1042 12.015C20.2338 9.86939 20.4318 7.72379 20.547 5.56559C20.511 5.62499 20.466 5.67719 20.4426 5.74559C18.3852 11.4696 16.5042 17.2476 15.0858 23.166C14.4324 25.8894 13.8258 28.62 13.1922 31.347C13.0662 31.8816 12.9096 32.418 12.753 32.9472C12.7129 33.0811 12.6534 33.2084 12.5766 33.3252C12.2886 33.7842 11.7342 33.7986 11.4534 33.3378C11.2965 33.0625 11.1767 32.7678 11.097 32.4612C10.0998 28.9818 9.0954 25.506 8.1234 22.0194C7.6266 20.2338 7.1874 18.423 6.723 16.6302C6.705 16.5672 6.687 16.5042 6.5952 16.4376C6.5856 16.9632 6.5736 17.49 6.5592 18.018L6.1956 30.357C6.1668 31.3938 6.12 32.427 6.0984 33.4602C6.093 33.5862 6.1812 33.7104 6.2064 33.8364C6.246 34.0182 6.3504 34.2864 6.2748 34.3692C6.10489 34.5483 5.8761 34.6601 5.6304 34.6842C5.49 34.6896 5.2506 34.4754 5.1984 34.3152C5.1192 34.0596 5.1372 33.759 5.1444 33.4818C5.2416 29.6658 5.364 25.848 5.4504 22.0284C5.5152 18.9396 5.5386 15.849 5.5854 12.7566C5.5902 12.3918 5.6112 12.0282 5.6484 11.6658C5.6754 11.3778 5.7924 11.1276 6.1344 11.1168C6.4638 11.1024 6.6708 11.2914 6.7572 11.5848C6.8508 11.9106 6.9102 12.2508 6.966 12.5856C7.722 17.1018 9.036 21.4866 10.2618 25.8858C10.773 27.7218 11.3112 29.5434 11.844 31.3722C11.875 31.5111 11.9386 31.6406 12.0294 31.7502C12.078 31.5846 12.132 31.4172 12.1698 31.2426C12.6414 29.1546 13.0734 27.0558 13.5972 24.9822C14.3712 21.9168 15.111 18.8406 16.0416 15.8202C17.2476 11.9016 18.6192 8.03519 19.9296 4.15079C20.061 3.75119 20.2464 3.36599 20.4336 2.98799C20.5776 2.70539 20.7882 2.47139 21.1608 2.55599C21.5262 2.63879 21.6828 2.91599 21.6756 3.25979C21.6576 4.20119 21.6468 5.13899 21.5856 6.07859C21.2736 11.1702 20.9526 16.263 20.6226 21.357C20.3562 25.4034 20.0538 29.448 19.7694 33.4926C19.7388 33.8976 19.7064 34.3098 19.7262 34.7382L20.4408 32.9886C22.1382 28.926 24.3504 25.1442 26.8074 21.51C28.4238 19.116 30.1482 16.7922 31.8402 14.4486C32.0994 14.0886 32.4162 13.7646 32.7294 13.446C32.9742 13.194 33.2838 13.0248 33.6474 13.1868C33.9894 13.3398 34.0434 13.6512 34.038 13.9842C34.0344 14.031 34.0452 14.076 34.0488 14.1192C34.0254 14.2182 34.0092 14.3064 33.993 14.4ZM25.3764 41.5494C25.5156 41.5686 25.656 41.5758 25.7976 41.571C26.208 41.5404 26.4204 41.67 26.451 41.9778C26.4556 42.0575 26.4443 42.1373 26.4177 42.2126C26.3911 42.2879 26.3498 42.3571 26.2962 42.4163C26.2426 42.4754 26.1777 42.5233 26.1054 42.5571C26.0331 42.5909 25.9548 42.61 25.875 42.6132C25.617 42.6229 25.3587 42.6048 25.1046 42.5592C23.4414 42.3144 21.7782 42.0684 20.115 41.8212C15.7464 41.1696 11.3724 40.5486 7.0038 39.8592C5.1498 39.5712 3.3102 39.1482 1.467 38.7936C1.18053 38.7368 0.892394 38.6888 0.603 38.6496C0.2952 38.6136 0.0791999 38.3976 0.0917999 38.1276C0.1044 37.8576 0.3384 37.6632 0.6534 37.6668C0.7362 37.6686 0.819 37.6848 0.8946 37.6974C4.9626 38.4102 21.285 40.941 25.3764 41.5494Z" fill="#FFC046"/>
</svg>
