<svg width="32" height="27" viewBox="0 0 32 27" fill="none" xmlns="http://www.w3.org/2000/svg">
<path d="M11.583 8.98606C12.9561 10.3824 14.3292 11.7822 15.7101 13.1575C16.2163 13.6583 16.7574 14.088 17.2791 14.5981L19.9264 17.294C20.7981 18.2093 21.6689 19.1305 22.5514 20.026C23.3359 20.8202 24.163 21.5259 24.9795 22.2666C25.509 22.7266 26.0501 23.1563 26.5718 23.6268C27.0773 24.133 27.5534 24.6815 28.0002 25.2723C28.2746 25.6473 28.0622 25.9373 27.5803 26.0828C26.9245 26.2669 26.2367 26.193 25.6186 25.872C23.3642 24.1361 21.2263 22.1912 19.2243 20.0551C18.0481 18.7345 16.6478 17.6096 15.361 16.3845C13.9481 15.0243 12.5489 13.6385 11.1476 12.2631L8.55851 9.71625C7.2368 8.46087 5.97327 7.08087 4.63605 5.85577C3.61979 4.87988 2.52597 4.07987 1.49808 3.1098C1.27504 2.89902 1.04231 2.69982 0.82704 2.46924C0.0939417 1.56439 -0.0747873 1.0683 0.0270319 0.548916C0.036729 0.427803 0.0561231 0.309415 0.0852143 0.193737C0.19964 -0.136995 0.673826 -0.0216761 1.3565 0.368448C3.43555 1.55396 5.38563 3.2495 7.36286 4.92528C8.84166 6.15039 10.2177 7.57118 11.6344 8.92671L11.583 8.98606ZM26.4961 9.86999C26.9344 10.5827 27.3805 11.3315 27.8237 12.05C27.9866 12.3144 28.1766 12.5496 28.3396 12.8035C28.9097 13.7374 29.4809 14.6749 30.0753 15.5786C30.3342 15.9827 30.6407 16.3367 30.9209 16.7117C31.2959 17.1496 31.6463 17.6185 31.9721 18.1185C32.0613 18.278 31.9294 18.5074 31.6812 18.618C31.5381 18.6848 31.3843 18.7119 31.2312 18.6972C31.0716 18.6883 30.9182 18.6204 30.7919 18.5027C29.9107 17.6394 29.1587 16.6016 28.5684 15.4341C28.1805 14.7401 27.7034 14.1462 27.2758 13.4975C26.8481 12.8489 26.3526 12.05 25.8988 11.3222L25.0522 9.99921L24.4161 9.0012C24.2105 8.65649 24.004 8.30714 23.7907 7.97291C23.4571 7.47448 23.0886 6.97492 22.7511 6.4765C22.6774 6.36121 22.596 6.26689 22.5262 6.13646C22.4225 5.97454 22.3497 5.7873 22.3128 5.58795C22.2993 5.51656 22.3 5.44232 22.3148 5.3713C22.3299 5.30202 22.3581 5.23792 22.3972 5.18387C22.4263 5.12978 22.4616 5.08079 22.5019 5.0383C22.539 5.01147 22.5807 4.99493 22.6238 4.98989C22.6669 4.98486 22.7104 4.99142 22.7511 5.00915C22.8663 5.04749 22.9724 5.11722 23.0614 5.21294C23.7828 6.01362 24.472 6.85496 25.1269 7.73416C25.3765 8.05868 25.6105 8.40108 25.829 8.76131L26.5117 9.83971L26.4961 9.86999Z" fill="#FFC046"/>
</svg>
