<svg width="319" height="17" viewBox="0 0 319 17" fill="none" xmlns="http://www.w3.org/2000/svg">
<path fill-rule="evenodd" clip-rule="evenodd" d="M300.733 4.21279C295.26 3.93371 290.042 4.17158 285.278 6.05432C278.745 8.6355 272.264 8.57477 266.032 8.5162C265.111 8.50753 264.195 8.49885 263.285 8.49885C255.198 8.49885 247.197 9.92826 239.071 11.6165C237.607 11.9202 236.138 12.2325 234.664 12.547C228.001 13.9649 221.231 15.4066 214.401 16.16C214.012 16.2026 211.22 16.3805 208.905 16.46C207.761 16.4991 206.625 16.5193 205.934 16.4745C205.737 16.4642 205.542 16.4406 205.349 16.4036C205.192 16.3727 205.038 16.3255 204.891 16.2626L204.884 16.2597C204.656 16.1617 204.45 16.0192 204.278 15.8406C204.105 15.662 203.97 15.4508 203.879 15.2193C203.471 14.1579 204.144 13.3937 204.353 13.1999C204.587 12.983 204.829 12.871 204.92 12.8305C205.142 12.73 205.386 12.6606 205.58 12.6114C207.086 12.226 208.622 11.9433 210.085 11.6744C210.618 11.5775 211.139 11.4799 211.648 11.3815C213.6 11.0027 215.444 10.5696 217.245 9.83427C219.065 9.09028 220.947 8.46198 222.766 7.85464C223.549 7.59291 224.32 7.33551 225.069 7.07378C225.241 7.01449 225.413 6.95424 225.584 6.89303H221.734C211.837 6.89303 201.939 7.29286 192.003 7.69485L191.975 7.69558C182.061 8.09685 172.108 8.49885 162.149 8.49885C160.173 8.49885 158.212 8.48439 156.265 8.46993C145.24 8.38968 134.613 8.31087 123.845 10.8595C117.722 12.3084 111.592 13.3163 105.307 13.3163H105.279L105.197 13.3221C105.125 13.3269 105.035 13.3349 104.926 13.346C104.763 13.3624 104.579 13.3821 104.374 13.4053C104.301 13.413 104.224 13.4214 104.144 13.4306C103.58 13.492 102.858 13.5679 102.272 13.5752C102.002 13.5781 101.611 13.5716 101.243 13.4833C100.924 13.4105 100.626 13.2673 100.369 13.064C100.112 12.8578 99.9125 12.5886 99.7893 12.2824C99.666 11.9762 99.6234 11.6433 99.6655 11.3157C99.7419 10.7243 100.065 10.3353 100.208 10.177C100.384 9.98466 100.579 9.8321 100.74 9.71786C101.068 9.48505 101.496 9.24645 101.998 8.99701C102.329 8.83168 102.664 8.66563 103.002 8.49885H1.80023C1.32278 8.49885 0.864886 8.30841 0.527278 7.96943C0.18967 7.63045 0 7.17069 0 6.6913C0 6.21191 0.18967 5.75216 0.527278 5.41317C0.864886 5.07419 1.32278 4.88376 1.80023 4.88376H107.119C107.219 4.88376 107.494 4.87725 107.882 4.86857C108.592 4.85122 109.681 4.82591 110.759 4.81507C111.529 4.80784 112.294 4.80784 112.768 4.83459C112.886 4.8411 113.027 4.85122 113.161 4.87002C113.224 4.87869 113.334 4.89605 113.457 4.93003C113.784 5.01609 114.082 5.19123 114.316 5.43614C114.49 5.61685 114.625 5.83172 114.711 6.0672C114.798 6.30268 114.835 6.55366 114.821 6.80432C114.806 7.05499 114.74 7.29989 114.626 7.52359C114.513 7.74729 114.354 7.94495 114.161 8.10408C113.887 8.33111 113.603 8.42366 113.546 8.44246L113.54 8.44463C113.38 8.49506 113.217 8.5342 113.051 8.56175C111.883 8.76492 110.713 9.10836 109.529 9.54506C114.008 9.22187 118.473 8.41715 123.02 7.33985C134.244 4.68493 145.357 4.76952 156.37 4.85411C158.3 4.86857 160.226 4.88376 162.149 4.88376C172.032 4.88376 181.923 4.48393 191.859 4.08265H191.867C201.788 3.68137 211.755 3.27793 221.734 3.27793H231.719L231.817 3.27576C231.896 3.27431 231.998 3.27214 232.112 3.27142C232.334 3.26925 232.626 3.26998 232.903 3.28516H232.911C233.098 3.29528 233.576 3.32131 233.987 3.48327C234.109 3.53099 234.362 3.64161 234.609 3.86936C234.791 4.03622 234.938 4.23789 235.042 4.46257C235.145 4.68724 235.203 4.9304 235.212 5.17779C235.221 5.42519 235.18 5.67184 235.093 5.9033C235.005 6.13476 234.873 6.34637 234.703 6.52573C234.566 6.67156 234.409 6.79761 234.237 6.90026C231.588 8.50681 228.878 9.57398 226.25 10.4893C225.992 10.579 225.737 10.6669 225.484 10.7532C228.265 10.2124 231.05 9.61953 233.852 9.02376C235.344 8.70636 236.838 8.38751 238.341 8.07661C246.497 6.38185 254.805 4.88376 263.285 4.88376C264.243 4.88376 265.187 4.89099 266.119 4.89894C272.394 4.94955 278.125 4.99582 283.96 2.69011C289.444 0.522502 295.279 0.314996 300.915 0.602034C303.166 0.716994 305.427 0.913655 307.63 1.10598C308.185 1.15418 308.736 1.20166 309.282 1.24841C312.022 1.48123 314.662 1.6721 317.2 1.6721C317.677 1.6721 318.135 1.86254 318.473 2.20152C318.81 2.5405 319 3.00026 319 3.47965C319 3.95904 318.81 4.4188 318.473 4.75778C318.135 5.09676 317.677 5.2872 317.2 5.2872C314.499 5.2872 311.729 5.08475 308.979 4.85122L307.288 4.70517C305.091 4.51357 302.912 4.32342 300.733 4.21279Z" fill="#FFC046"/>
</svg>
