<svg width="27" height="32" viewBox="0 0 27 32" fill="none" xmlns="http://www.w3.org/2000/svg">
<path d="M9.0439 18.9534C10.4297 17.6883 11.8214 16.4241 13.1884 15.1503C13.6853 14.684 14.1186 14.1814 14.626 13.7004L17.3035 11.2609C18.2101 10.4595 19.1285 9.6581 20.0116 8.84463C20.8005 8.12184 21.5069 7.35503 22.2487 6.60115C22.7079 6.11065 23.1436 5.60802 23.6145 5.12529C24.1208 4.65897 24.6624 4.2226 25.2393 3.81615C25.6043 3.56572 25.8634 3.77643 25.9811 4.24103C26.1224 4.87056 26.0164 5.51996 25.6867 6.10286C23.9535 8.17802 22.0091 10.1543 19.8703 12.0148C18.5633 13.0951 17.4365 14.3947 16.2144 15.5821C14.8603 16.8861 13.4816 18.1771 12.1134 19.469L9.5808 21.8567C8.33037 23.0778 6.96336 24.2384 5.74001 25.475C4.76864 26.4128 3.95854 27.431 2.9907 28.38C2.78112 28.5864 2.58097 28.8006 2.35254 28.9992C1.46123 29.6702 0.985557 29.8152 0.500458 29.7021C0.386724 29.6892 0.275363 29.6669 0.168445 29.6356C-0.137685 29.5165 -0.00584904 29.0682 0.39683 28.4301C1.62017 26.4862 3.31927 24.6814 4.99945 22.849C6.22986 21.4785 7.64039 20.2099 8.98972 18.9033L9.0439 18.9534ZM10.6758 4.98631C11.3717 4.5908 12.1005 4.18834 12.801 3.78938C13.0589 3.64171 13.2896 3.46816 13.5381 3.32049C14.447 2.80581 15.3619 2.29113 16.2438 1.75314C16.6383 1.51825 16.9879 1.23673 17.3553 0.981978C17.7854 0.637707 18.247 0.318204 18.74 0.0234436C18.893 -0.0568671 19.105 0.0761112 19.1874 0.31618C19.2463 0.455212 19.2698 0.602037 19.2463 0.747114C19.2312 0.896532 19.1576 1.03957 19.0343 1.15902C18.1866 1.96472 17.174 2.64951 16.0307 3.18319C15.3572 3.53207 14.7732 3.96816 14.1386 4.35503C13.5039 4.7419 12.7268 5.1901 12.0169 5.60029L10.7264 6.36623L9.7527 6.94138C9.41713 7.12704 9.07684 7.31185 8.75069 7.50529C8.26324 7.80753 7.77341 8.14345 7.28596 8.45002C7.1741 8.51651 7.07993 8.59161 6.95394 8.65378C6.802 8.74768 6.62017 8.81185 6.42531 8.84031C6.35677 8.84974 6.28607 8.84605 6.22007 8.82956C6.15406 8.81307 6.09497 8.78438 6.04853 8.74623C5.9983 8.71628 5.95393 8.68142 5.91665 8.64261C5.89235 8.60584 5.87847 8.56583 5.87584 8.52502C5.8732 8.4842 5.88188 8.4434 5.90135 8.40511C5.94189 8.29862 6.01294 8.1997 6.10975 8.11496C6.85977 7.48456 7.71102 6.83775 8.59173 6.22635C8.91121 5.99779 9.24638 5.78506 9.59726 5.58817L10.6487 4.97076L10.6758 4.98631Z" fill="#FFC046"/>
</svg>
