<svg width="319" height="17" viewBox="0 0 319 17" fill="none" xmlns="http://www.w3.org/2000/svg">
<path fill-rule="evenodd" clip-rule="evenodd" d="M18.2672 12.7872C23.7399 13.0663 28.9577 12.8284 33.7218 10.9457C40.2545 8.36451 46.736 8.42524 52.9684 8.4838C53.8894 8.49248 54.8054 8.50116 55.7148 8.50116C63.8022 8.50116 71.8031 7.07174 79.9293 5.38349C81.3925 5.07983 82.8615 4.76748 84.3363 4.45297C90.9985 3.03513 97.7688 1.59342 104.599 0.840037C104.988 0.797379 107.78 0.619515 110.095 0.539983C111.239 0.50094 112.375 0.480696 113.066 0.525523C113.263 0.535761 113.458 0.559434 113.651 0.596379C113.808 0.627272 113.962 0.674524 114.109 0.737368L114.116 0.740259C114.344 0.838327 114.55 0.980788 114.722 1.15938C114.895 1.33798 115.03 1.54916 115.121 1.78069C115.529 2.84208 114.856 3.60631 114.647 3.80008C114.413 4.01698 114.171 4.12905 114.08 4.16954C113.858 4.27004 113.614 4.33945 113.42 4.38862C111.914 4.77398 110.378 5.05669 108.915 5.32565C108.382 5.42253 107.861 5.52014 107.352 5.61847C105.4 5.99733 103.556 6.43042 101.755 7.16573C99.9349 7.90972 98.0526 8.53803 96.2343 9.14536C95.4509 9.40709 94.6796 9.66449 93.9307 9.92622C93.7589 9.98551 93.5873 10.0458 93.4159 10.107L97.2662 10.107C107.163 10.107 117.061 9.70715 126.997 9.30515L127.025 9.30442C136.939 8.90315 146.892 8.50115 156.851 8.50115C158.827 8.50115 160.788 8.51561 162.735 8.53007C173.76 8.61032 184.387 8.68913 195.155 6.14048C201.278 4.69155 207.408 3.68366 213.693 3.68366L213.721 3.68366L213.803 3.67788C213.875 3.67306 213.965 3.66511 214.074 3.65402C214.237 3.63763 214.421 3.61787 214.626 3.59473C214.699 3.58702 214.776 3.57858 214.856 3.56943C215.42 3.50797 216.142 3.43205 216.728 3.42482C216.998 3.42193 217.389 3.42844 217.757 3.51665C218.076 3.58945 218.374 3.73271 218.631 3.936C218.888 4.14223 219.088 4.41142 219.211 4.71762C219.334 5.02382 219.377 5.35672 219.334 5.68426C219.258 6.27569 218.935 6.66467 218.792 6.82301C218.616 7.01534 218.421 7.16789 218.26 7.28213C217.932 7.51494 217.504 7.75354 217.002 8.00298C216.671 8.16831 216.336 8.33437 215.998 8.50114L317.2 8.50113C317.677 8.50113 318.135 8.69157 318.473 9.03055C318.81 9.36953 319 9.82929 319 10.3087C319 10.7881 318.81 11.2478 318.473 11.5868C318.135 11.9258 317.677 12.1162 317.2 12.1162L211.881 12.1162C211.781 12.1162 211.506 12.1227 211.118 12.1314C210.408 12.1488 209.319 12.1741 208.241 12.1849C207.471 12.1922 206.706 12.1922 206.232 12.1654C206.114 12.1589 205.973 12.1488 205.839 12.13C205.776 12.1213 205.666 12.1039 205.543 12.07C205.216 11.9839 204.918 11.8088 204.684 11.5639C204.51 11.3831 204.375 11.1683 204.289 10.9328C204.202 10.6973 204.165 10.4463 204.179 10.1957C204.194 9.94501 204.26 9.70011 204.374 9.4764C204.487 9.2527 204.646 9.05505 204.839 8.89591C205.113 8.66888 205.397 8.57634 205.454 8.55754L205.46 8.55537C205.62 8.50494 205.783 8.4658 205.949 8.43824C207.117 8.23507 208.287 7.89164 209.471 7.45493C204.992 7.77812 200.527 8.58284 195.98 9.66014C184.756 12.3151 173.643 12.2305 162.63 12.1459C160.7 12.1314 158.774 12.1162 156.851 12.1162C146.968 12.1162 137.077 12.5161 127.141 12.9174L127.133 12.9174C117.212 13.3186 107.245 13.7221 97.2662 13.7221L87.2807 13.7221L87.1828 13.7242C87.1043 13.7257 87.0021 13.7279 86.8883 13.7286C86.6665 13.7308 86.3741 13.73 86.0969 13.7148L86.0889 13.7148C85.9024 13.7047 85.4243 13.6787 85.0132 13.5167C84.8907 13.469 84.638 13.3584 84.391 13.1306C84.2089 12.9638 84.0618 12.7621 83.9583 12.5374C83.8547 12.3128 83.7969 12.0696 83.7882 11.8222C83.7795 11.5748 83.82 11.3282 83.9074 11.0967C83.9949 10.8652 84.1275 10.6536 84.2974 10.4743C84.4345 10.3284 84.591 10.2024 84.7626 10.0997C87.4125 8.4932 90.1222 7.42602 92.7498 6.51068C93.0076 6.42103 93.263 6.33306 93.516 6.24678C90.735 6.7876 87.9497 7.38047 85.1478 7.97624C83.6565 8.29365 82.1616 8.6125 80.6588 8.9234C72.503 10.6182 64.1946 12.1163 55.7148 12.1163C54.7571 12.1163 53.8131 12.109 52.8813 12.1011C46.6064 12.0505 40.8752 12.0042 35.0403 14.3099C29.5561 16.4775 23.7212 16.685 18.0851 16.398C15.8341 16.283 13.573 16.0864 11.3695 15.894C10.8146 15.8458 10.2642 15.7984 9.71833 15.7516C6.97838 15.5188 4.33783 15.3279 1.80024 15.3279C1.32279 15.3279 0.864896 15.1375 0.527288 14.7985C0.18968 14.4595 1.01526e-05 13.9998 1.01107e-05 13.5204C1.00688e-05 13.041 0.18968 12.5812 0.527288 12.2422C0.864896 11.9033 1.32279 11.7128 1.80024 11.7128C4.50057 11.7128 7.27077 11.9153 10.0208 12.1488L11.7123 12.2948C13.9093 12.4864 16.0875 12.6766 18.2672 12.7872Z" fill="#FFC046"/>
</svg>
